Coordinates
version=1
nRows=24
nColumns=38
inDegrees=no

Units are S.I. units (second, meters, Newtons, ...)
If the header above contains a line with 'inDegrees', this indicates whether rotational values are in degrees (yes) or radians (no).

endheader
time	pelvis_tilt	pelvis_list	pelvis_rotation	pelvis_tx	pelvis_ty	pelvis_tz	hip_flexion_r	hip_adduction_r	hip_rotation_r	knee_angle_r	ankle_angle_r	subtalar_angle_r	mtp_angle_r	hip_flexion_l	hip_adduction_l	hip_rotation_l	knee_angle_l	ankle_angle_l	subtalar_angle_l	mtp_angle_l	lumbar_extension	lumbar_bending	lumbar_rotation	arm_flex_r	arm_add_r	arm_rot_r	elbow_flex_r	pro_sup_r	wrist_flex_r	wrist_dev_r	arm_flex_l	arm_add_l	arm_rot_l	elbow_flex_l	pro_sup_l	wrist_flex_l	wrist_dev_l
44	0.124879	1.18035	1.48677	0.75579	-0.355842	0.940765	0.921766	-0.00826631	0.0132528	0.858681	-0.13782	0	0	0.826591	-0.109523	0.0195179	0.826313	-0.117272	0	0	-0.600716	-0.0233682	0.245607	0.337186	-0.574707	0.555957	0.749395	0.71088	0	0	0.737569	-0.141043	0.636265	0.346741	1.06263	0	0
44.01	0.121753	1.17245	1.49097	0.756072	-0.358593	0.937377	0.940225	-0.00837852	0.0165068	0.871078	-0.135791	0	0	0.845954	-0.106596	0.02445	0.842133	-0.11353	0	0	-0.607313	-0.0246137	0.245942	0.345327	-0.576269	0.552765	0.75046	0.707703	0	0	0.746518	-0.137963	0.624802	0.346723	1.07669	0	0
44.02	0.11795	1.16386	1.4962	0.756318	-0.361335	0.933871	0.959468	-0.00915059	0.0195883	0.883614	-0.133312	0	0	0.866113	-0.103274	0.0287881	0.85791	-0.109838	0	0	-0.613027	-0.0259115	0.246022	0.353015	-0.577454	0.548219	0.751272	0.705567	0	0	0.755905	-0.134844	0.615668	0.346224	1.08896	0	0
44.03	0.113503	1.15439	1.50189	0.756602	-0.364065	0.930267	0.979647	-0.0105112	0.0213445	0.895734	-0.130654	0	0	0.887372	-0.0999883	0.0325354	0.873555	-0.106611	0	0	-0.617499	-0.0277474	0.246294	0.359628	-0.578631	0.543115	0.752389	0.703952	0	0	0.765818	-0.131475	0.60863	0.344776	1.10003	0	0
44.04	0.108619	1.14538	1.50769	0.757028	-0.366675	0.926643	0.999167	-0.0117154	0.0231636	0.907418	-0.128157	0	0	0.907928	-0.0974507	0.0351293	0.889173	-0.103994	0	0	-0.621992	-0.0303652	0.247048	0.365825	-0.579605	0.537609	0.753237	0.702287	0	0	0.776192	-0.128108	0.604	0.343062	1.10872	0	0
44.05	0.103104	1.13587	1.51407	0.757519	-0.369168	0.922895	1.0192	-0.0130588	0.0253329	0.919145	-0.125415	0	0	0.928852	-0.0951534	0.0372897	0.90489	-0.101572	0	0	-0.625447	-0.0334668	0.248144	0.370687	-0.5802	0.530098	0.754141	0.701029	0	0	0.786309	-0.1246	0.600148	0.341522	1.11602	0	0
44.06	0.0972202	1.12745	1.52236	0.757604	-0.371599	0.91936	1.0377	-0.016853	0.0260697	0.930647	-0.122588	0	0	0.94822	-0.0906004	0.0409995	0.91914	-0.0997759	0	0	-0.630081	-0.0353981	0.247524	0.375643	-0.581164	0.521939	0.755589	0.700547	0	0	0.796198	-0.120834	0.596271	0.340018	1.1221	0	0
44.07	0.0911086	1.11781	1.52971	0.758005	-0.37386	0.915627	1.05771	-0.0191142	0.0285537	0.942996	-0.119501	0	0	0.968637	-0.0879072	0.0425087	0.933397	-0.0979297	0	0	-0.632692	-0.0385272	0.24805	0.378679	-0.580949	0.511162	0.757013	0.701003	0	0	0.804814	-0.117289	0.591078	0.339424	1.12836	0	0
44.08	0.0859379	1.1093	1.53634	0.758293	-0.37597	0.912089	1.07646	-0.0214964	0.0306973	0.955961	-0.11702	0	0	0.987393	-0.0854614	0.0431405	0.946922	-0.0964427	0	0	-0.636415	-0.0410689	0.248235	0.381843	-0.580809	0.500404	0.758643	0.702594	0	0	0.812672	-0.114108	0.585638	0.33992	1.13643	0	0
44.09	0.0817096	1.10114	1.54216	0.758381	-0.378037	0.908748	1.09414	-0.0238457	0.0329323	0.967742	-0.115088	0	0	1.00505	-0.0827494	0.0440368	0.959348	-0.0950467	0	0	-0.64051	-0.0427753	0.247942	0.385446	-0.581051	0.490291	0.760626	0.704865	0	0	0.819647	-0.111079	0.578171	0.34136	1.14617	0	0
44.1	0.0785655	1.09328	1.54748	0.758314	-0.380076	0.905599	1.11059	-0.0265798	0.0344624	0.977832	-0.113376	0	0	1.02178	-0.0795599	0.0455236	0.970583	-0.0936052	0	0	-0.644835	-0.0433574	0.246856	0.389688	-0.581573	0.481336	0.762806	0.707072	0	0	0.82562	-0.108307	0.567436	0.343733	1.15749	0	0
44.11	0.076397	1.08548	1.55209	0.758164	-0.382036	0.902599	1.12631	-0.0293999	0.0354488	0.986863	-0.111822	0	0	1.03806	-0.0763724	0.0469919	0.980884	-0.092471	0	0	-0.649065	-0.0429665	0.245328	0.394397	-0.582249	0.473265	0.7651	0.709497	0	0	0.830267	-0.105808	0.552944	0.34736	1.17046	0	0
44.12	0.0738368	1.07466	1.55547	0.758383	-0.38385	0.899274	1.14526	-0.0299225	0.0386383	0.995894	-0.110192	0	0	1.05732	-0.0753898	0.0463957	0.991404	-0.0913925	0	0	-0.64935	-0.0439591	0.245121	0.396892	-0.581318	0.461894	0.767145	0.71521	0	0	0.831994	-0.103358	0.52894	0.353738	1.19339	0	0
44.13	0.0733494	1.07116	1.55715	0.758359	-0.385772	0.896759	1.15603	-0.0307033	0.0401424	1.00393	-0.109081	0	0	1.06877	-0.0745441	0.0462009	1.00171	-0.0901684	0	0	-0.656581	-0.044009	0.245776	0.401658	-0.583617	0.455997	0.769988	0.716888	0	0	0.837019	-0.099934	0.514298	0.35735	1.20959	0	0
44.14	0.0714683	1.06725	1.56085	0.758195	-0.387681	0.894256	1.16723	-0.0327691	0.0414841	1.0119	-0.107787	0	0	1.08016	-0.0720818	0.0465389	1.01117	-0.0888104	0	0	-0.662978	-0.0441974	0.24597	0.405079	-0.586286	0.44922	0.773373	0.717581	0	0	0.841643	-0.0963571	0.499997	0.361119	1.22637	0	0
44.15	0.0672961	1.0625	1.56708	0.758002	-0.389548	0.891695	1.17946	-0.0359074	0.0433435	1.02026	-0.106282	0	0	1.09201	-0.0683531	0.0462976	1.01994	-0.0878483	0	0	-0.667962	-0.045131	0.245388	0.407564	-0.588639	0.442175	0.77648	0.71864	0	0	0.845855	-0.0930751	0.48637	0.365055	1.24352	0	0
44.16	0.0613594	1.05667	1.57504	0.757825	-0.39137	0.889057	1.19283	-0.0395926	0.0459966	1.02886	-0.104681	0	0	1.10485	-0.0638927	0.0454128	1.02824	-0.0875862	0	0	-0.671204	-0.0468634	0.244406	0.408866	-0.590702	0.434224	0.779777	0.721054	0	0	0.849448	-0.0899401	0.472949	0.369336	1.25952	0	0
44.17	0.05526	1.05071	1.58345	0.757514	-0.393152	0.886516	1.20602	-0.0436882	0.0488482	1.03715	-0.103293	0	0	1.1177	-0.0588084	0.0446785	1.03573	-0.0879586	0	0	-0.673966	-0.0483405	0.243037	0.409523	-0.592881	0.425668	0.783466	0.724316	0	0	0.852602	-0.0869818	0.460347	0.374013	1.27429	0	0
44.18	0.0505995	1.04599	1.59138	0.756872	-0.394878	0.884273	1.21728	-0.0485704	0.0507877	1.04474	-0.101895	0	0	1.12886	-0.0526988	0.045762	1.04252	-0.0881264	0	0	-0.677981	-0.0479651	0.240971	0.4107	-0.595909	0.417955	0.787609	0.727403	0	0	0.855398	-0.0840479	0.448213	0.378924	1.28767	0	0
44.19	0.0469842	1.04142	1.59691	0.756381	-0.39645	0.882137	1.22794	-0.0511759	0.0537768	1.05154	-0.100522	0	0	1.13963	-0.0484403	0.0466484	1.04916	-0.0882905	0	0	-0.681754	-0.0477824	0.239774	0.412179	-0.59871	0.41115	0.791459	0.730497	0	0	0.857711	-0.0815116	0.436428	0.38368	1.30037	0	0
44.2	0.0437529	1.03428	1.59841	0.756692	-0.39777	0.879669	1.24106	-0.0482544	0.0601936	1.05775	-0.0990913	0	0	1.15274	-0.0496752	0.0442123	1.05702	-0.0880796	0	0	-0.681896	-0.0507116	0.241495	0.411377	-0.599218	0.401382	0.794856	0.735598	0	0	0.85844	-0.0796032	0.422731	0.389364	1.3153	0	0
44.21	0.0583032	0.984044	1.58442	0.755066	-0.397459	0.87432	1.29102	-0.0448177	0.05566	1.05182	-0.101282	0	0	1.20778	-0.0506173	0.0537826	1.06078	-0.0892965	0	0	-0.651771	0.00352001	0.143359	0.523129	-0.547138	0.513292	0.764643	0.782501	0	0	0.732813	-0.166258	0.200584	0.544962	1.39866	0	0
44.22	0.0352669	1.03464	1.60349	0.757508	-0.400612	0.87606	1.25281	-0.0431476	0.0730128	1.07173	-0.0951576	0	0	1.1631	-0.0522351	0.0373987	1.07336	-0.0863248	0	0	-0.696752	-0.0582055	0.239159	0.414376	-0.599117	0.384841	0.805515	0.755871	0	0	0.857977	-0.0759998	0.359034	0.407533	1.3884	0	0
44.23	0.0339903	1.03365	1.6041	0.757407	-0.401782	0.874387	1.25868	-0.0421715	0.0757686	1.07714	-0.0947299	0	0	1.16889	-0.0525343	0.0356519	1.0804	-0.085158	0	0	-0.700855	-0.0587405	0.236987	0.417164	-0.602033	0.387641	0.810591	0.753305	0	0	0.860684	-0.0783015	0.364362	0.408498	1.38166	0	0
